<?xml version="1.0" encoding="utf-8"?>
<!-- Generator: Adobe Illustrator 22.1.0, SVG Export Plug-In . SVG Version: 6.00 Build 0)  -->
<svg version="1.1" id="Layer_1" xmlns="http://www.w3.org/2000/svg" xmlns:xlink="http://www.w3.org/1999/xlink" x="0px" y="0px"
	 viewBox="0 0 60 17.5" style="enable-background:new 0 0 60 17.5;" xml:space="preserve">
<g>
	<path d="M3.1,8.3C1.4,8.3,0.3,7.4,0.1,6l0-0.2h1.5l0,0.1C1.7,6.6,2.2,7,3.1,7c0.8,0,1.3-0.4,1.3-1c0-0.2-0.1-0.4-0.3-0.6
		C3.8,5.2,3.2,5,2.6,4.9C1.9,4.7,1.2,4.5,0.8,4.1C0.4,3.7,0.2,3.2,0.2,2.7V2.6c0-1.5,1.4-2.2,2.7-2.2c1.6,0,2.6,0.8,2.7,2.1l0,0.2
		H4.2l0,0C4.2,2.2,3.9,1.7,2.9,1.7c-0.6,0-1.2,0.2-1.2,0.8c0,0.2,0.1,0.4,0.2,0.6c0.3,0.2,0.8,0.4,1.3,0.5C4,3.8,4.8,4,5.3,4.5
		c0.3,0.3,0.6,0.9,0.6,1.4V6C5.9,7.7,4.4,8.3,3.1,8.3z"/>
	<path d="M21.6,8.1V0.5h2.8c2.3,0,3.8,1.5,3.8,3.7v0.3c0,2.1-1.6,3.6-3.8,3.6H21.6z M24.3,6.7c1.5,0,2.3-0.9,2.3-2.4
		c0-1.6-0.8-2.4-2.3-2.4h-1.2v4.8H24.3z"/>
	<rect x="32.5" y="0.5" width="1.6" height="7.6"/>
	<polygon points="47,8.1 46.3,3.1 44.3,7.9 43.2,7.9 41.2,3.1 40.5,8.1 39,8.1 39,7.8 40.1,0.5 41.6,0.5 43.8,5.8 46,0.5 47.4,0.5 
		48.5,7.8 48.5,8.1 	"/>
	<path d="M58.3,8.1l-0.6-1.5h-3.3l-0.6,1.5h-1.5V7.8l3-7.3h1.6l3,7.3v0.2H58.3z M57.2,5.2l-1.1-3.1L55,5.2H57.2z"/>
	<path d="M13.4,8.3c-2.2,0-3.8-1.6-3.8-3.8V4.2c0-0.1,0-0.1,0-0.2l0-0.1h1.6l0,0.1c0,0.1,0,0.2,0,0.4c0,1.5,0.9,2.6,2.3,2.6
		c1.4,0,2.3-1,2.3-2.6c0-0.1,0-0.2,0-0.4l0-0.1h1.6l0,0.1c0,0.1,0,0.1,0,0.2v0.3C17.2,6.7,15.6,8.3,13.4,8.3z"/>
	<path d="M14.8,16.9v-3.8h0.8v1.6h1.9v-1.6h0.8v3.8h-0.8v-1.6h-1.9v1.6H14.8z"/>
	<path d="M22.5,17c-1.1,0-1.9-0.8-1.9-2s0.8-2,1.9-2c1.1,0,1.9,0.8,1.9,2S23.6,17,22.5,17z M22.5,13.7c-0.7,0-1.1,0.5-1.1,1.3
		s0.4,1.3,1.1,1.3c0.7,0,1.1-0.5,1.1-1.3S23.2,13.7,22.5,13.7z"/>
	<path d="M27.6,16.9v-3.2h-1.3v-0.6h3.5v0.6h-1.4v3.2H27.6z"/>
	<path d="M34.9,16.9H32v-3.8h2.8v0.6h-2.1v0.9h1.6v0.6h-1.6v1h2.1V16.9z"/>
	<path d="M38,13.1v3.2h2v0.6h-2.8v-3.8H38z"/>
	<path d="M42.7,15.6c0,0.6,0.5,0.9,1,0.9c0.5,0,0.8-0.2,0.8-0.5c0-0.3-0.2-0.4-0.6-0.5l-0.7-0.1c-0.6-0.1-1-0.4-1-1.1
		c0-0.7,0.6-1.2,1.5-1.2c1,0,1.6,0.5,1.6,1.4l-0.7,0c0-0.5-0.4-0.8-0.9-0.8c-0.4,0-0.7,0.2-0.7,0.5c0,0.3,0.2,0.4,0.5,0.4l0.7,0.1
		c0.7,0.1,1.1,0.5,1.1,1.1c0,0.7-0.6,1.2-1.5,1.2c-1,0-1.7-0.5-1.7-1.4L42.7,15.6z"/>
</g>
</svg>
